<svg width="77" height="58" fill="none" xmlns="http://www.w3.org/2000/svg"><path fill-rule="evenodd" clip-rule="evenodd" d="M54.556 47H57V12.777h-2.444V47z" fill="#66BB6A"/><path fill-rule="evenodd" clip-rule="evenodd" d="M75.262 7.053H63.844a8.713 8.713 0 0 0-8.713 8.713v3.365h.067c.343-4.498 4.06-8.053 8.646-8.053h11.35c.018-.221.068-.434.068-.661V7.053z" fill="#66BB6A"/><path clip-rule="evenodd" d="M75.262 7.053H63.844a8.713 8.713 0 0 0-8.713 8.713v3.365h.067c.343-4.498 4.06-8.053 8.646-8.053h11.35c.018-.221.068-.434.068-.661V7.053z" stroke="#fff" stroke-width="2" stroke-linecap="round" stroke-linejoin="round"/><path fill-rule="evenodd" clip-rule="evenodd" d="M55.197 19.13h11.351c4.586 0 8.302-3.554 8.646-8.052h-11.35c-4.585 0-8.303 3.555-8.647 8.053z" fill="#66BB6A"/><path clip-rule="evenodd" d="M55.197 19.13h11.351c4.586 0 8.302-3.554 8.646-8.052h-11.35c-4.585 0-8.303 3.555-8.647 8.053z" stroke="#fff" stroke-width="2" stroke-linecap="round" stroke-linejoin="round"/><path fill-rule="evenodd" clip-rule="evenodd" d="M55.131 13.078H43.714A8.714 8.714 0 0 1 35 4.365V1h.067c.343 4.498 4.061 8.053 8.647 8.053h11.35c.017.221.067.434.067.661v3.364z" fill="#66BB6A"/><path clip-rule="evenodd" d="M55.131 13.078H43.714A8.714 8.714 0 0 1 35 4.365V1h.067c.343 4.498 4.061 8.053 8.647 8.053h11.35c.017.221.067.434.067.661v3.364z" stroke="#fff" stroke-width="2" stroke-linecap="round" stroke-linejoin="round"/><path fill-rule="evenodd" clip-rule="evenodd" d="M35.067 1h11.35c4.586 0 8.303 3.555 8.647 8.053H43.713c-4.585 0-8.303-3.555-8.646-8.053z" fill="#66BB6A"/><path clip-rule="evenodd" d="M35.067 1h11.35c4.586 0 8.303 3.555 8.647 8.053H43.713c-4.585 0-8.303-3.555-8.646-8.053z" stroke="#fff" stroke-width="2" stroke-linecap="round" stroke-linejoin="round"/><path fill-rule="evenodd" clip-rule="evenodd" d="M57.363 36.324a5.707 5.707 0 0 0-5-5.664l-15.157-1.895L1 57h28l8.206-10.598" fill="#66BB6A"/><path d="M57.363 36.324v0a5.707 5.707 0 0 0-5-5.664l-12.99-1.624a5.259 5.259 0 0 0-3.888 1.071L1 57" stroke="#fff" stroke-width="2" stroke-linecap="round" stroke-linejoin="round"/><path fill-rule="evenodd" clip-rule="evenodd" d="M66.977 28.766l-4.133.49a3.77 3.77 0 0 0-1.505.518l-4.758 2.874V39H61l5.977-10.234z" fill="#66BB6A"/><path clip-rule="evenodd" d="M66.977 28.766l-4.133.49a3.77 3.77 0 0 0-1.505.518l-4.758 2.874V39H61l5.977-10.234z" stroke="#fff" stroke-width="2" stroke-linecap="round" stroke-linejoin="round"/><path fill-rule="evenodd" clip-rule="evenodd" d="M44.765 36.324h15.118l8.647-8.648a2.807 2.807 0 0 1 3.239-.526L75 28.765 59.883 46.402H37.206L29 57" fill="#66BB6A"/><path d="M44.765 36.324h15.118l8.647-8.648a2.807 2.807 0 0 1 3.239-.526L75 28.765 59.883 46.402H37.206L29 57" stroke="#fff" stroke-width="2" stroke-linecap="round" stroke-linejoin="round"/></svg>