<svg width="78" height="64" fill="none" xmlns="http://www.w3.org/2000/svg"><path fill-rule="evenodd" clip-rule="evenodd" d="M75.72 63H39.53V49.046a10.43 10.43 0 0 1 7.432-9.99l10.663-3.199 10.663 3.199a10.429 10.429 0 0 1 7.433 9.99V63z" fill="#66BB6A"/><path clip-rule="evenodd" d="M75.72 63H39.53V49.046a10.43 10.43 0 0 1 7.432-9.99l10.663-3.199 10.663 3.199a10.429 10.429 0 0 1 7.433 9.99V63z" stroke="#fff" stroke-width="2" stroke-linecap="round" stroke-linejoin="round"/><path fill-rule="evenodd" clip-rule="evenodd" d="M67.125 21.38l-2.375-9.047H50.5l-2.375 9.048-9.5 5.429h38l-9.5-5.43z" fill="#66BB6A"/><path clip-rule="evenodd" d="M67.125 21.38l-2.375-9.047H50.5l-2.375 9.048-9.5 5.429h38l-9.5-5.43z" stroke="#fff" stroke-width="2" stroke-linecap="round" stroke-linejoin="round"/><path d="M67.125 21.38h-19" stroke="#fff" stroke-width="2"/><path fill-rule="evenodd" clip-rule="evenodd" d="M57.625 43.096a9.048 9.048 0 0 1-9.048-9.048V26.81h18.096v7.238a9.048 9.048 0 0 1-9.048 9.048z" fill="#66BB6A"/><path clip-rule="evenodd" d="M57.625 43.096v0a9.048 9.048 0 0 1-9.048-9.048V26.81h18.096v7.238a9.048 9.048 0 0 1-9.048 9.048z" stroke="#fff" stroke-width="2" stroke-linecap="round" stroke-linejoin="round"/><path fill-rule="evenodd" clip-rule="evenodd" d="M46.393 63H2.108V45.924A12.76 12.76 0 0 1 11.203 33.7l13.047-3.914L37.298 33.7a12.76 12.76 0 0 1 9.095 12.224V63z" fill="#66BB6A"/><path clip-rule="evenodd" d="M46.393 63H2.108V45.924A12.76 12.76 0 0 1 11.203 33.7l13.047-3.914L37.298 33.7a12.76 12.76 0 0 1 9.095 12.224V63z" stroke="#fff" stroke-width="2" stroke-linecap="round" stroke-linejoin="round"/><path fill-rule="evenodd" clip-rule="evenodd" d="M35.875 12.071l-2.906-11.07H15.531l-2.906 11.07L1 18.714h46.5l-11.625-6.643z" fill="#66BB6A"/><path clip-rule="evenodd" d="M35.875 12.071l-2.906-11.07H15.531l-2.906 11.07L1 18.714h46.5l-11.625-6.643z" stroke="#fff" stroke-width="2" stroke-linecap="round" stroke-linejoin="round"/><path d="M35.875 12.071h-23.25" stroke="#fff" stroke-width="2"/><path fill-rule="evenodd" clip-rule="evenodd" d="M24.25 38.643c-6.114 0-11.071-4.957-11.071-11.071v-8.858h22.142v8.858c0 6.114-4.957 11.07-11.071 11.07z" fill="#66BB6A"/><path clip-rule="evenodd" d="M24.25 38.643v0c-6.114 0-11.071-4.957-11.071-11.071v-8.858h22.142v8.858c0 6.114-4.957 11.07-11.071 11.07z" stroke="#fff" stroke-width="2" stroke-linecap="round" stroke-linejoin="round"/><mask id="a" maskUnits="userSpaceOnUse" x="0" y="0" width="78" height="64"><path fill-rule="evenodd" clip-rule="evenodd" d="M0 64h77.625V0H0v64z" fill="#fff"/></mask><g mask="url(#a)"><path clip-rule="evenodd" d="M8.75 63h31V45.286h-31V63z" stroke="#fff" stroke-width="2" stroke-linecap="round" stroke-linejoin="round"/><path d="M10.964 45.286V34.214m26.572 11.072V34.214" stroke="#fff" stroke-width="2" stroke-linecap="round" stroke-linejoin="round"/><path fill-rule="evenodd" clip-rule="evenodd" d="M35.321 51.929a2.214 2.214 0 1 1-4.427 0 2.214 2.214 0 0 1 4.427 0zm-17.713 0a2.214 2.214 0 1 1-4.428 0 2.214 2.214 0 0 1 4.428 0z" fill="#fff"/><path fill-rule="evenodd" clip-rule="evenodd" d="M19 29c.802 2.329 2.959 4 5.5 4s4.698-1.671 5.5-4" fill="#66BB6A"/><path d="M19 29c.802 2.329 2.959 4 5.5 4s4.698-1.671 5.5-4" stroke="#fff" stroke-width="2" stroke-linecap="round" stroke-linejoin="round"/></g></svg>