<svg width="82" height="36" fill="none" xmlns="http://www.w3.org/2000/svg"><path d="M24 1V0h-1v1h1zm0 34h-1v1h1v-1zm57 0v1h1v-1h-1zm0-34h1V0h-1v1zM26 3V2h-1v1h1zm0 30h-1v1h1v-1zM79 3h1V2h-1v1zm0 30v1h1v-1h-1zM24 2h1V0h-1v2zm1 0V1h-2v1h2zm0 32V2h-2v32h2zm0 1v-1h-2v1h2zm0-1h-1v2h1v-2zm55 0H25v2h55v-2zm1 0h-1v2h1v-2zm-1 0v1h2v-1h-2zm0-32v32h2V2h-2zm0-1v1h2V1h-2zm0 1h1V0h-1v2zM25 2h55V0H25v2zm0 1v30h2V3h-2zm54-1H26v2h53V2zm1 31V3h-2v30h2zm-54 1h53v-2H26v2z" fill="#D1EAD3"/><path clip-rule="evenodd" d="M1 34h40v-7.226H1V34z" stroke="#D1EAD3" stroke-width="2"/><path fill-rule="evenodd" clip-rule="evenodd" d="M1 35h40v-7H1v7z" fill="#66BB6A" stroke="#D1EAD3" stroke-width="2"/><path clip-rule="evenodd" d="M9 26h39v-7H9v7z" stroke="#D1EAD3" stroke-width="2"/><path fill-rule="evenodd" clip-rule="evenodd" d="M9 26h39v-7H9v7z" fill="#66BB6A" stroke="#D1EAD3" stroke-width="2"/><path clip-rule="evenodd" d="M17 18h40v-7H17v7z" stroke="#D1EAD3" stroke-width="2"/><path fill-rule="evenodd" clip-rule="evenodd" d="M17 18h40v-7H17v7z" fill="#66BB6A" stroke="#D1EAD3" stroke-width="2"/><path clip-rule="evenodd" d="M25 9h39V2H25v7z" stroke="#D1EAD3" stroke-width="2"/><path fill-rule="evenodd" clip-rule="evenodd" d="M25 9h39V2H25v7z" fill="#66BB6A" stroke="#D1EAD3" stroke-width="2"/></svg>