<svg width="82" height="36" viewBox="0 0 82 36" fill="none" xmlns="http://www.w3.org/2000/svg">
<path d="M24 1V0H23V1H24ZM24 35H23V36H24V35ZM81 35V36H82V35H81ZM81 1H82V0H81V1ZM26 3V2H25V3H26ZM26 33H25V34H26V33ZM79 3H80V2H79V3ZM79 33V34H80V33H79ZM24 2H25V0H24V2ZM25 2V1H23V2H25ZM25 34V2H23V34H25ZM25 35V34H23V35H25ZM25 34H24V36H25V34ZM80 34H25V36H80V34ZM81 34H80V36H81V34ZM80 34V35H82V34H80ZM80 2V34H82V2H80ZM80 1V2H82V1H80ZM80 2H81V0H80V2ZM25 2H80V0H25V2ZM25 3V33H27V3H25ZM79 2H26V4H79V2ZM80 33V3H78V33H80ZM26 34H79V32H26V34Z" fill="#D1EAD3"/>
<path fill-rule="evenodd" clip-rule="evenodd" d="M1 34H41V26.7742H1V34Z" stroke="#D1EAD3" stroke-width="2"/>
<path fill-rule="evenodd" clip-rule="evenodd" d="M1 35H41V28H1V35Z" fill="#66BB6A" stroke="#D1EAD3" stroke-width="2"/>
<path fill-rule="evenodd" clip-rule="evenodd" d="M9 26H48V19H9V26Z" stroke="#D1EAD3" stroke-width="2"/>
<path fill-rule="evenodd" clip-rule="evenodd" d="M9 26H48V19H9V26Z" fill="#66BB6A" stroke="#D1EAD3" stroke-width="2"/>
<path fill-rule="evenodd" clip-rule="evenodd" d="M17 18H57V11H17V18Z" stroke="#D1EAD3" stroke-width="2"/>
<path fill-rule="evenodd" clip-rule="evenodd" d="M17 18H57V11H17V18Z" fill="#66BB6A" stroke="#D1EAD3" stroke-width="2"/>
<path fill-rule="evenodd" clip-rule="evenodd" d="M25 9H64V2H25V9Z" stroke="#D1EAD3" stroke-width="2"/>
<path fill-rule="evenodd" clip-rule="evenodd" d="M25 9H64V2H25V9Z" fill="#66BB6A" stroke="#D1EAD3" stroke-width="2"/>
</svg>
