<svg width="77" height="58" viewBox="0 0 77 58" fill="none" xmlns="http://www.w3.org/2000/svg">
<path fill-rule="evenodd" clip-rule="evenodd" d="M54.5559 47H56.9999V12.777H54.5559V47Z" fill="#66BB6A"/>
<path fill-rule="evenodd" clip-rule="evenodd" d="M75.2616 7.0527H63.8436C59.0326 7.0527 55.1306 10.9527 55.1306 15.7657V19.1307H55.1976C55.5406 14.6327 59.2586 11.0777 63.8436 11.0777H75.1946C75.2116 10.8567 75.2616 10.6437 75.2616 10.4167V7.0527Z" fill="#66BB6A"/>
<path fill-rule="evenodd" clip-rule="evenodd" d="M75.2616 7.0527H63.8436C59.0326 7.0527 55.1306 10.9527 55.1306 15.7657V19.1307H55.1976C55.5406 14.6327 59.2586 11.0777 63.8436 11.0777H75.1946C75.2116 10.8567 75.2616 10.6437 75.2616 10.4167V7.0527Z" stroke="white" stroke-width="2" stroke-linecap="round" stroke-linejoin="round"/>
<path fill-rule="evenodd" clip-rule="evenodd" d="M55.1973 19.1309H66.5483C71.1343 19.1309 74.8503 15.5759 75.1943 11.0779H63.8433C59.2593 11.0779 55.5413 14.6329 55.1973 19.1309Z" fill="#66BB6A"/>
<path fill-rule="evenodd" clip-rule="evenodd" d="M55.1973 19.1309H66.5483C71.1343 19.1309 74.8503 15.5759 75.1943 11.0779H63.8433C59.2593 11.0779 55.5413 14.6329 55.1973 19.1309Z" stroke="white" stroke-width="2" stroke-linecap="round" stroke-linejoin="round"/>
<path fill-rule="evenodd" clip-rule="evenodd" d="M55.131 13.0781H43.714C38.902 13.0781 35 9.1771 35 4.3651V1.0001H35.067C35.41 5.4981 39.128 9.0531 43.714 9.0531H55.064C55.081 9.2741 55.131 9.4871 55.131 9.7141V13.0781Z" fill="#66BB6A"/>
<path fill-rule="evenodd" clip-rule="evenodd" d="M55.131 13.0781H43.714C38.902 13.0781 35 9.1771 35 4.3651V1.0001H35.067C35.41 5.4981 39.128 9.0531 43.714 9.0531H55.064C55.081 9.2741 55.131 9.4871 55.131 9.7141V13.0781Z" stroke="white" stroke-width="2" stroke-linecap="round" stroke-linejoin="round"/>
<path fill-rule="evenodd" clip-rule="evenodd" d="M35.0669 1H46.4179C51.0029 1 54.7199 4.555 55.0639 9.053H43.7129C39.1279 9.053 35.4099 5.498 35.0669 1Z" fill="#66BB6A"/>
<path fill-rule="evenodd" clip-rule="evenodd" d="M35.0669 1H46.4179C51.0029 1 54.7199 4.555 55.0639 9.053H43.7129C39.1279 9.053 35.4099 5.498 35.0669 1Z" stroke="white" stroke-width="2" stroke-linecap="round" stroke-linejoin="round"/>
<path fill-rule="evenodd" clip-rule="evenodd" d="M57.3632 36.3242C57.3632 33.4452 55.2192 31.0162 52.3632 30.6602L37.2062 28.7652L1.00024 57.0002H29.0002L37.2062 46.4022" fill="#66BB6A"/>
<path d="M57.3632 36.3242V36.3242C57.3632 33.4452 55.2192 31.0162 52.3632 30.6602L39.3722 29.0362C37.9862 28.8622 36.5872 29.2482 35.4852 30.1072L1.00024 57.0002" stroke="white" stroke-width="2" stroke-linecap="round" stroke-linejoin="round"/>
<path fill-rule="evenodd" clip-rule="evenodd" d="M66.9766 28.7656L62.8436 29.2566C62.3106 29.3206 61.7976 29.4956 61.3386 29.7736L56.5806 32.6476V38.9996H60.9996L66.9766 28.7656Z" fill="#66BB6A"/>
<path fill-rule="evenodd" clip-rule="evenodd" d="M66.9766 28.7656L62.8436 29.2566C62.3106 29.3206 61.7976 29.4956 61.3386 29.7736L56.5806 32.6476V38.9996H60.9996L66.9766 28.7656Z" stroke="white" stroke-width="2" stroke-linecap="round" stroke-linejoin="round"/>
<path fill-rule="evenodd" clip-rule="evenodd" d="M44.765 36.3242H59.883L68.53 27.6762C69.385 26.8222 70.689 26.6102 71.769 27.1502L75 28.7652L59.883 46.4022H37.206L29 57.0002" fill="#66BB6A"/>
<path d="M44.765 36.3242H59.883L68.53 27.6762C69.385 26.8222 70.689 26.6102 71.769 27.1502L75 28.7652L59.883 46.4022H37.206L29 57.0002" stroke="white" stroke-width="2" stroke-linecap="round" stroke-linejoin="round"/>
</svg>
